bicep_curl
version=1
nRows=436
nColumns=3
inDegrees=yes

# SIMM Motion File Header:
name bicep_curl
datacolumns 3
datarows 436
otherdata 1
range 0.0000 0.4350
endheader
time	/jointset/r_shoulder/r_shoulder_elev/value	/jointset/r_elbow/r_elbow_flex/value
0.0000	0.0000	132.3000
0.0010	0.0000	132.1656
0.0020	0.0000	132.0312
0.0030	0.0000	131.8968
0.0040	0.0000	131.7624
0.0050	0.0000	131.6280
0.0060	0.0000	131.4936
0.0070	0.0000	131.3592
0.0080	0.0000	131.2248
0.0090	0.0000	131.0904
0.0100	0.0000	130.9560
0.0110	0.0000	130.8216
0.0120	0.0000	130.6872
0.0130	0.0000	130.5528
0.0140	0.0000	130.4184
0.0150	0.0000	130.2840
0.0160	0.0000	130.1496
0.0170	0.0000	130.0152
0.0180	0.0000	129.8808
0.0190	0.0000	129.7464
0.0200	0.0000	129.6120
0.0210	0.0000	129.4776
0.0220	0.0000	129.3432
0.0230	0.0000	129.2088
0.0240	0.0000	129.0744
0.0250	0.0000	128.9400
0.0260	0.0000	128.8056
0.0270	0.0000	128.6712
0.0280	0.0000	128.5368
0.0290	0.0000	128.4024
0.0300	0.0000	128.2680
0.0310	0.0000	128.1336
0.0320	0.0000	127.9992
0.0330	0.0000	127.8648
0.0340	0.0000	127.7304
0.0350	0.0000	127.5960
0.0360	0.0000	127.4616
0.0370	0.0000	127.3272
0.0380	0.0000	127.1928
0.0390	0.0000	127.0584
0.0400	0.0000	126.9240
0.0410	0.0000	126.7896
0.0420	0.0000	126.6552
0.0430	0.0000	126.5208
0.0440	0.0000	126.3864
0.0450	0.0000	126.2520
0.0460	0.0000	126.1176
0.0470	0.0000	125.9832
0.0480	0.0000	125.8488
0.0490	0.0000	125.7144
0.0500	0.0000	125.5800
0.0510	0.0000	125.4456
0.0520	0.0000	125.3112
0.0530	0.0000	125.1768
0.0540	0.0000	125.0424
0.0550	0.0000	124.9080
0.0560	0.0000	124.7736
0.0570	0.0000	124.6392
0.0580	0.0000	124.5048
0.0590	0.0000	124.3704
0.0600	0.0000	124.2360
0.0610	0.0000	124.1016
0.0620	0.0000	123.9672
0.0630	0.0000	123.8328
0.0640	0.0000	123.6984
0.0650	0.0000	123.5640
0.0660	0.0000	123.4296
0.0670	0.0000	123.2952
0.0680	0.0000	123.1608
0.0690	0.0000	123.0264
0.0700	0.0000	122.8920
0.0710	0.0000	122.7576
0.0720	0.0000	122.6232
0.0730	0.0000	122.4888
0.0740	0.0000	122.3544
0.0750	0.0000	122.2200
0.0760	0.0000	122.0856
0.0770	0.0000	121.9512
0.0780	0.0000	121.8168
0.0790	0.0000	121.6824
0.0800	0.0000	121.5480
0.0810	0.0000	121.4136
0.0820	0.0000	121.2792
0.0830	0.0000	121.1448
0.0840	0.0000	121.0104
0.0850	0.0000	120.8760
0.0860	0.0000	120.7416
0.0870	0.0000	120.6072
0.0880	0.0000	120.4728
0.0890	0.0000	120.3384
0.0900	0.0000	120.2040
0.0910	0.0000	120.0696
0.0920	0.0000	119.9352
0.0930	0.0000	119.8008
0.0940	0.0000	119.6664
0.0950	0.0000	119.5320
0.0960	0.0000	119.3976
0.0970	0.0000	119.2632
0.0980	0.0000	119.1288
0.0990	0.0000	118.9944
0.1000	0.0000	118.8600
0.1010	0.0000	118.7256
0.1020	0.0000	118.5912
0.1030	0.0000	118.4568
0.1040	0.0000	118.3224
0.1050	0.0000	118.1880
0.1060	0.0000	118.0536
0.1070	0.0000	117.9192
0.1080	0.0000	117.7848
0.1090	0.0000	117.6504
0.1100	0.0000	117.5160
0.1110	0.0000	117.3816
0.1120	0.0000	117.2472
0.1130	0.0000	117.1128
0.1140	0.0000	116.9784
0.1150	0.0000	116.8440
0.1160	0.0000	116.7096
0.1170	0.0000	116.5752
0.1180	0.0000	116.4408
0.1190	0.0000	116.3064
0.1200	0.0000	116.1720
0.1210	0.0000	116.0376
0.1220	0.0000	115.9032
0.1230	0.0000	115.7688
0.1240	0.0000	115.6344
0.1250	0.0000	115.5000
0.1260	0.0000	115.3656
0.1270	0.0000	115.2312
0.1280	0.0000	115.0968
0.1290	0.0000	114.9624
0.1300	0.0000	114.8280
0.1310	0.0000	114.6936
0.1320	0.0000	114.5592
0.1330	0.0000	114.4248
0.1340	0.0000	114.2904
0.1350	0.0000	114.1560
0.1360	0.0000	114.0216
0.1370	0.0000	113.8872
0.1380	0.0000	113.7528
0.1390	0.0000	113.6184
0.1400	0.0000	113.4840
0.1410	0.0000	113.3496
0.1420	0.0000	113.2152
0.1430	0.0000	113.0808
0.1440	0.0000	112.9464
0.1450	0.0000	112.8120
0.1460	0.0000	112.6776
0.1470	0.0000	112.5432
0.1480	0.0000	112.4088
0.1490	0.0000	112.2744
0.1500	0.0000	112.1400
0.1510	0.0000	112.0056
0.1520	0.0000	111.8712
0.1530	0.0000	111.7368
0.1540	0.0000	111.6024
0.1550	0.0000	111.4680
0.1560	0.0000	111.3336
0.1570	0.0000	111.1992
0.1580	0.0000	111.0648
0.1590	0.0000	110.9304
0.1600	0.0000	110.7960
0.1610	0.0000	110.6616
0.1620	0.0000	110.5272
0.1630	0.0000	110.3928
0.1640	0.0000	110.2584
0.1650	0.0000	110.1240
0.1660	0.0000	109.9896
0.1670	0.0000	109.8552
0.1680	0.0000	109.7208
0.1690	0.0000	109.5864
0.1700	0.0000	109.4520
0.1710	0.0000	109.3176
0.1720	0.0000	109.1832
0.1730	0.0000	109.0488
0.1740	0.0000	108.9144
0.1750	0.0000	108.7800
0.1760	0.0000	108.6456
0.1770	0.0000	108.5112
0.1780	0.0000	108.3768
0.1790	0.0000	108.2424
0.1800	0.0000	108.1080
0.1810	0.0000	107.9736
0.1820	0.0000	107.8392
0.1830	0.0000	107.7048
0.1840	0.0000	107.5704
0.1850	0.0000	107.4360
0.1860	0.0000	107.3016
0.1870	0.0000	107.1672
0.1880	0.0000	107.0328
0.1890	0.0000	106.8984
0.1900	0.0000	106.7640
0.1910	0.0000	106.6296
0.1920	0.0000	106.4952
0.1930	0.0000	106.3608
0.1940	0.0000	106.2264
0.1950	0.0000	106.0920
0.1960	0.0000	105.9576
0.1970	0.0000	105.8232
0.1980	0.0000	105.6888
0.1990	0.0000	105.5544
0.2000	0.0000	105.4200
0.2010	0.0000	105.2856
0.2020	0.0000	105.1512
0.2030	0.0000	105.0168
0.2040	0.0000	104.8824
0.2050	0.0000	104.7480
0.2060	0.0000	104.6136
0.2070	0.0000	104.4792
0.2080	0.0000	104.3448
0.2090	0.0000	104.2104
0.2100	0.0000	104.0760
0.2110	0.0000	103.9416
0.2120	0.0000	103.8072
0.2130	0.0000	103.6728
0.2140	0.0000	103.5384
0.2150	0.0000	103.4040
0.2160	0.0000	103.2696
0.2170	0.0000	103.1352
0.2180	0.0000	103.0008
0.2190	0.0000	102.8664
0.2200	0.0000	102.7320
0.2210	0.0000	102.5976
0.2220	0.0000	102.4632
0.2230	0.0000	102.3288
0.2240	0.0000	102.1944
0.2250	0.0000	102.0600
0.2260	0.0000	101.9256
0.2270	0.0000	101.7912
0.2280	0.0000	101.6568
0.2290	0.0000	101.5224
0.2300	0.0000	101.3880
0.2310	0.0000	101.2536
0.2320	0.0000	101.1192
0.2330	0.0000	100.9848
0.2340	0.0000	100.8504
0.2350	0.0000	100.7160
0.2360	0.0000	100.5816
0.2370	0.0000	100.4472
0.2380	0.0000	100.3128
0.2390	0.0000	100.1784
0.2400	0.0000	100.0440
0.2410	0.0000	99.9096
0.2420	0.0000	99.7752
0.2430	0.0000	99.6408
0.2440	0.0000	99.5064
0.2450	0.0000	99.3720
0.2460	0.0000	99.2376
0.2470	0.0000	99.1032
0.2480	0.0000	98.9688
0.2490	0.0000	98.8344
0.2500	0.0000	98.7000
0.2510	0.0000	98.7561
0.2520	0.0000	98.8120
0.2530	0.0000	98.8677
0.2540	0.0000	98.9231
0.2550	0.0000	98.9783
0.2560	0.0000	99.0333
0.2570	0.0000	99.0880
0.2580	0.0000	99.1425
0.2590	0.0000	99.1968
0.2600	0.0000	99.2508
0.2610	0.0000	99.3046
0.2620	0.0000	99.3581
0.2630	0.0000	99.4114
0.2640	0.0000	99.4645
0.2650	0.0000	99.5174
0.2660	0.0000	99.5700
0.2670	0.0000	99.6224
0.2680	0.0000	99.6745
0.2690	0.0000	99.7264
0.2700	0.0000	99.7781
0.2710	0.0000	99.8295
0.2720	0.0000	99.8807
0.2730	0.0000	99.9317
0.2740	0.0000	99.9824
0.2750	0.0000	100.0329
0.2760	0.0000	100.0832
0.2770	0.0000	100.1332
0.2780	0.0000	100.1830
0.2790	0.0000	100.2325
0.2800	0.0000	100.2819
0.2810	0.0000	100.3309
0.2820	0.0000	100.3798
0.2830	0.0000	100.4284
0.2840	0.0000	100.4768
0.2850	0.0000	100.5249
0.2860	0.0000	100.5728
0.2870	0.0000	100.6205
0.2880	0.0000	100.6680
0.2890	0.0000	100.7152
0.2900	0.0000	100.7621
0.2910	0.0000	100.8089
0.2920	0.0000	100.8554
0.2930	0.0000	100.9016
0.2940	0.0000	100.9477
0.2950	0.0000	100.9935
0.2960	0.0000	101.0390
0.2970	0.0000	101.0844
0.2980	0.0000	101.1295
0.2990	0.0000	101.1743
0.3000	0.0000	101.2189
0.3010	0.0000	101.2633
0.3020	0.0000	101.3075
0.3030	0.0000	101.3514
0.3040	0.0000	101.3951
0.3050	0.0000	101.4385
0.3060	0.0000	101.4817
0.3070	0.0000	101.5247
0.3080	0.0000	101.5674
0.3090	0.0000	101.6100
0.3100	0.0000	101.6522
0.3110	0.0000	101.6943
0.3120	0.0000	101.7361
0.3130	0.0000	101.7776
0.3140	0.0000	101.8190
0.3150	0.0000	101.8601
0.3160	0.0000	101.9009
0.3170	0.0000	101.9415
0.3180	0.0000	101.9819
0.3190	0.0000	102.0221
0.3200	0.0000	102.0620
0.3210	0.0000	102.1017
0.3220	0.0000	102.1412
0.3230	0.0000	102.1804
0.3240	0.0000	102.2194
0.3250	0.0000	102.2581
0.3260	0.0000	102.2966
0.3270	0.0000	102.3349
0.3280	0.0000	102.3729
0.3290	0.0000	102.4107
0.3300	0.0000	102.4483
0.3310	0.0000	102.4856
0.3320	0.0000	102.5227
0.3330	0.0000	102.5596
0.3340	0.0000	102.5962
0.3350	0.0000	102.6326
0.3360	0.0000	102.6688
0.3370	0.0000	102.7047
0.3380	0.0000	102.7404
0.3390	0.0000	102.7759
0.3400	0.0000	102.8111
0.3410	0.0000	102.8461
0.3420	0.0000	102.8808
0.3430	0.0000	102.9154
0.3440	0.0000	102.9496
0.3450	0.0000	102.9837
0.3460	0.0000	103.0175
0.3470	0.0000	103.0511
0.3480	0.0000	103.0844
0.3490	0.0000	103.1175
0.3500	0.0000	103.1504
0.3510	0.0000	103.1830
0.3520	0.0000	103.2154
0.3530	0.0000	103.2476
0.3540	0.0000	103.2795
0.3550	0.0000	103.3112
0.3560	0.0000	103.3427
0.3570	0.0000	103.3739
0.3580	0.0000	103.4049
0.3590	0.0000	103.4357
0.3600	0.0000	103.4662
0.3610	0.0000	103.4965
0.3620	0.0000	103.5265
0.3630	0.0000	103.5564
0.3640	0.0000	103.5859
0.3650	0.0000	103.6153
0.3660	0.0000	103.6444
0.3670	0.0000	103.6733
0.3680	0.0000	103.7019
0.3690	0.0000	103.7303
0.3700	0.0000	103.7585
0.3710	0.0000	103.7864
0.3720	0.0000	103.8141
0.3730	0.0000	103.8416
0.3740	0.0000	103.8688
0.3750	0.0000	103.8958
0.3760	0.0000	103.9226
0.3770	0.0000	103.9491
0.3780	0.0000	103.9754
0.3790	0.0000	104.0015
0.3800	0.0000	104.0273
0.3810	0.0000	104.0529
0.3820	0.0000	104.0782
0.3830	0.0000	104.1034
0.3840	0.0000	104.1282
0.3850	0.0000	104.1529
0.3860	0.0000	104.1773
0.3870	0.0000	104.2015
0.3880	0.0000	104.2254
0.3890	0.0000	104.2491
0.3900	0.0000	104.2726
0.3910	0.0000	104.2958
0.3920	0.0000	104.3188
0.3930	0.0000	104.3416
0.3940	0.0000	104.3641
0.3950	0.0000	104.3864
0.3960	0.0000	104.4085
0.3970	0.0000	104.4303
0.3980	0.0000	104.4519
0.3990	0.0000	104.4733
0.4000	0.0000	104.4944
0.4010	0.0000	104.5153
0.4020	0.0000	104.5359
0.4030	0.0000	104.5564
0.4040	0.0000	104.5765
0.4050	0.0000	104.5965
0.4060	0.0000	104.6162
0.4070	0.0000	104.6357
0.4080	0.0000	104.6549
0.4090	0.0000	104.6739
0.4100	0.0000	104.6927
0.4110	0.0000	104.7112
0.4120	0.0000	104.7295
0.4130	0.0000	104.7476
0.4140	0.0000	104.7654
0.4150	0.0000	104.7830
0.4160	0.0000	104.8004
0.4170	0.0000	104.8175
0.4180	0.0000	104.8344
0.4190	0.0000	104.8511
0.4200	0.0000	104.8675
0.4210	0.0000	104.8837
0.4220	0.0000	104.8996
0.4230	0.0000	104.9154
0.4240	0.0000	104.9308
0.4250	0.0000	104.9461
0.4260	0.0000	104.9611
0.4270	0.0000	104.9759
0.4280	0.0000	104.9904
0.4290	0.0000	105.0047
0.4300	0.0000	105.0188
0.4310	0.0000	105.0327
0.4320	0.0000	105.0463
0.4330	0.0000	105.0596
0.4340	0.0000	105.0728
0.4350	0.0000	105.0857
